<mxfile host="app.diagrams.net" modified="2023-06-13T05:10:51.999Z" agent="Mozilla/5.0 (Macintosh; Intel Mac OS X 10_15_7) AppleWebKit/537.36 (KHTML, like Gecko) Chrome/114.0.0.0 Safari/537.36" version="21.1.8" etag="1_zN6nKx_oy0WSJVk2Bp" type="github">
  <diagram name="Trang-1" id="vxE0sp2lzbkV5UY75fKn">
    <mxGraphModel>
      <root>
        <mxCell id="0" />
        <mxCell id="1" parent="0" />
      </root>
    </mxGraphModel>
  </diagram>
</mxfile>
